<svg width="256" height="281" viewBox="0 0 256 281" fill="none" xmlns="http://www.w3.org/2000/svg">
<g clip-path="url(#clip0_58_10)">
<path d="M208.77 273.98C216.28 272.1 223.36 270.32 230.44 268.56C231.02 268.42 231.74 268.14 232.18 268.35C233.06 268.77 234.15 269.34 234.52 270.14C235.06 271.3 234.29 272.34 233.1 272.84C232.5 273.09 231.84 273.22 231.2 273.37C227.36 274.29 223.46 275.04 219.67 276.15C216.18 277.17 212.77 278.51 209.37 279.82C207.02 280.73 205.33 280.06 204.65 277.92C203.38 273.88 201.94 269.89 200.69 265.84C198.33 258.23 196.01 250.62 193.75 242.98C191.67 235.98 189.69 228.96 187.65 221.95C187.52 221.5 187.29 221.08 187.13 220.72C186.96 220.67 186.9 220.63 186.85 220.65C178.85 223.78 170.4 224.12 161.99 224.91C156.52 225.42 151.08 226.42 145.66 227.4C133.7 229.57 121.84 228.93 109.96 226.7C104.2 225.62 98.3401 225.07 92.5301 224.27C91.3001 224.1 90.0801 223.91 88.7001 223.7C88.2401 240.34 87.8001 256.76 87.3401 273.33C93.6901 273.75 99.5901 274.14 105.48 274.52C105.96 274.55 106.44 274.46 106.91 274.52C108.17 274.67 109.11 275.28 109.22 276.62C109.34 278.03 108.54 279.03 107.21 279.16C105.2 279.36 103.15 279.38 101.13 279.26C96.4701 278.99 91.8201 278.58 87.1601 278.26C83.2301 277.99 82.3601 276.75 82.7001 272.87C82.9601 269.85 82.6101 266.78 82.6901 263.73C83.0201 250.86 83.3701 238 83.8201 225.13C83.8901 223.26 83.3501 222.56 81.5001 222.23C76.4301 221.33 71.4001 220.22 66.3601 219.15C58.1001 217.4 50.6401 213.87 44.4801 208.12C37.0801 201.22 30.1301 193.85 22.7801 186.91C16.3701 180.86 11.3301 173.73 6.1901 166.67C2.4201 161.49 0.840095 155.47 0.250095 149.19C9.53376e-05 146.57 0.150095 143.92 0.0200953 141.29C-0.249905 135.4 0.990095 129.9 3.7401 124.67C4.7601 122.73 5.4501 120.56 5.9301 118.42C7.1301 113.12 9.18009 108.16 11.4801 103.27C12.9801 100.07 14.2101 96.7501 15.6501 93.5301C16.3101 92.0601 17.0001 90.5401 18.0001 89.3101C21.1601 85.4301 23.6201 81.0701 24.8001 76.3501C26.7001 68.7401 31.1701 62.3001 33.6401 54.9901C34.0001 53.9301 34.5601 52.8301 35.3401 52.0701C35.9201 51.5101 37.0901 51.1301 37.8501 51.3001C38.5201 51.4501 39.3501 52.4301 39.4701 53.1501C39.7801 54.9201 39.8201 56.7701 37.9601 57.9601C37.6301 58.1701 37.3601 58.5601 37.1901 58.9201C35.0201 63.7201 32.4401 68.3901 30.8601 73.3701C29.5001 77.6701 27.9801 81.8401 26.0001 85.8701C25.5201 86.8401 25.1001 87.8701 24.4401 88.7001C18.8501 95.7301 16.6101 104.39 12.9401 112.34C11.3101 115.89 10.7001 119.9 9.4201 123.63C8.4901 126.34 7.1001 128.89 6.1401 131.59C5.5501 133.26 5.1501 135.07 5.0701 136.83C4.7101 144.32 4.5101 151.83 7.5401 158.95C8.2401 160.59 9.0001 162.27 10.0601 163.69C15.1701 170.54 20.0001 177.6 26.2901 183.53C32.4301 189.32 38.1701 195.53 44.2001 201.44C51.5801 208.66 60.2301 213.42 70.5601 215.07C80.0101 216.58 89.4001 218.53 98.8401 220.13C105.98 221.34 113.13 222.56 120.32 223.32C128.67 224.2 137.01 224.02 145.37 222.56C153.85 221.08 162.44 220.25 171 219.26C182.17 217.98 192.31 214.38 200.77 206.7C203.83 203.92 207.09 201.35 210.01 198.44C212.46 196 214.58 193.24 216.78 190.56C218.94 187.92 221.12 185.29 223.1 182.52C230.02 172.85 238.04 163.93 243.34 153.15C247.14 145.43 250.61 137.56 250.92 128.8C251.19 121.26 250.26 113.63 247.27 106.81C244.68 100.89 242.84 94.9901 241.93 88.6801C241.78 87.6001 241.24 86.4601 240.56 85.6001C237.41 81.5901 235.2 77.0901 233.4 72.3701C232.11 69.0001 230.02 66.2401 227.7 63.5201C224.59 59.8901 221.77 56.0201 218.81 52.2601C217.85 51.0401 216.94 49.7601 215.84 48.6801C211.5 44.4001 207.12 40.1501 202.68 35.9701C201.21 34.5801 199.58 33.3401 197.93 32.1701C190.01 26.5801 182.09 21.0001 174.09 15.5301C172.43 14.4001 170.48 13.6901 168.62 12.8701C164.24 10.9301 159.85 9.01007 155.44 7.16007C154.52 6.77007 153.48 6.61007 152.48 6.48007C148.93 6.02007 145.36 5.64007 141.8 5.18007C140.37 5.00007 139.38 3.63007 139.54 2.20007C139.7 0.780072 140.81 -0.249928 142.33 0.0700722C149.89 1.65007 157.88 1.51007 164.76 5.82007C166.42 6.86007 168.31 7.57007 170.18 8.19007C174.11 9.50007 177.41 11.8701 180.78 14.1501C185.99 17.6601 191.32 21.0001 196.37 24.7301C201.75 28.7101 207.03 32.8401 211.4 38.0201C213.05 39.9701 215.22 41.4701 217.01 43.3101C219.17 45.5201 221.28 47.8101 223.25 50.1901C225.92 53.4101 228.27 56.9101 231.05 60.0101C234.01 63.3101 236.31 66.9001 238.13 70.9501C239.9 74.9101 242.32 78.5901 244.29 82.4701C245.36 84.5701 246.25 86.8001 246.92 89.0601C247.48 90.9401 247.43 92.9901 247.95 94.8901C248.6 97.2301 249.3 99.6301 250.46 101.75C252.3 105.14 253.27 108.73 253.96 112.45C255.35 120.06 256.66 127.61 254.99 135.42C253.61 141.89 251.13 147.86 248.4 153.8C245.23 160.7 241.07 166.97 236.29 172.85C235.42 173.92 234.62 175.04 233.79 176.14C228.68 182.92 223.85 189.95 218.39 196.43C211.15 205.03 202.77 212.46 192.9 218.03C192 218.54 191.77 218.97 192.07 219.99C196.08 233.54 199.97 247.11 204.04 260.64C205.43 265.27 207.23 269.77 208.71 273.98H208.77Z" fill="black"/>
<path d="M122.14 170.68C121.2 170.29 120.23 169.96 119.33 169.5C117.99 168.82 117.33 167.7 117.96 166.24C118.56 164.85 119.76 164.72 121.14 165C125.29 165.82 129.45 166.62 133.61 167.36C137.5 168.05 140.98 167.36 143.7 164.18C144.23 163.56 144.96 162.83 145.68 162.72C146.61 162.58 148.02 162.72 148.5 163.31C148.98 163.9 149 165.6 148.5 166.16C145.35 169.61 141.91 172.79 136.74 172.39C131.86 172.01 126.99 171.41 122.11 170.91V170.69L122.14 170.68Z" fill="black"/>
<path d="M141.35 140.03C142.98 140.59 143.83 141.95 143.38 143.31C142.94 144.64 141.2 145.36 139.62 144.86C138.2 144.41 137.44 142.83 137.94 141.39C138.42 140.02 139.76 139.49 141.34 140.03H141.35Z" fill="black"/>
<path d="M113.45 143.92C111.96 143.46 111.05 141.89 111.5 140.61C111.96 139.3 112.95 138.74 114.32 139.08C115.78 139.43 116.68 141.07 116.17 142.43C115.67 143.77 114.63 144.14 113.44 143.92H113.45Z" fill="black"/>
</g>
<defs>
<clipPath id="clip0_58_10">
<rect width="255.82" height="280.2" fill="white"/>
</clipPath>
</defs>
</svg>
