<svg width="209" height="100" viewBox="0 0 209 100" fill="none" xmlns="http://www.w3.org/2000/svg">
<path d="M179.677 32.28L180.157 33.1383L179.984 33.3033L184.378 32.8247C189.964 32.2164 195.732 34.6284 200.147 38.8395C204.558 43.0468 207.465 48.9097 207.465 54.9531C207.465 67.0978 197.132 77.0727 184.216 77.0727C181.394 77.0727 178.71 76.5623 176.193 75.6887L174.91 75.2434L174.339 76.4761C170.754 84.2297 162.602 89.6984 153.058 89.6984C148.225 89.6984 143.755 88.2859 140.034 85.8978L139.094 85.2946L138.247 86.022C129.239 93.754 117.304 98.4836 104.198 98.4836C92.2008 98.4836 81.1713 94.5076 72.4806 87.8949L71.6219 87.2416L70.7294 87.8478C67.0144 90.3714 62.4878 91.8741 57.5825 91.8741C48.9991 91.8741 41.5496 87.3141 37.707 80.6578L37.1327 79.663L36.0225 79.9581C33.7228 80.5695 31.2962 80.9132 28.7913 80.9132C13.646 80.9132 1.5 69.2234 1.5 54.9367C1.5 40.6495 13.6458 28.9617 28.7881 28.9931H28.7913C31.2291 28.9931 33.5912 29.3209 35.8633 29.9023L37.0491 30.2057L37.5842 29.1049C40.4405 23.2293 46.685 19.1035 53.9901 19.1035C56.8809 19.1035 59.5998 19.7737 62.0385 20.922L63.105 21.4242L63.8451 20.5067C73.1496 8.97123 87.714 1.5166 104.215 1.5166C120.717 1.5166 135.382 9.00459 144.668 20.6014L145.365 21.4717L146.399 21.0553C149.541 19.7903 152.978 19.0871 156.599 19.0871C166.629 19.0871 175.298 24.4499 179.677 32.28Z" fill="url(#paint0_linear_31_352)" stroke="#4ECAFF" stroke-width="3"/>
<defs>
<linearGradient id="paint0_linear_31_352" x1="104.483" y1="0.0166016" x2="104.483" y2="99.9836" gradientUnits="userSpaceOnUse">
<stop stop-color="#D8F6FF"/>
<stop offset="1" stop-color="#96E6FF"/>
</linearGradient>
</defs>
</svg>
