<?xml version="1.0" encoding="utf-8"?>
<!-- Generator: Adobe Illustrator 27.8.1, SVG Export Plug-In . SVG Version: 6.00 Build 0)  -->
<svg version="1.1" id="Слой_1" xmlns="http://www.w3.org/2000/svg" xmlns:xlink="http://www.w3.org/1999/xlink" x="0px" y="0px"
	 viewBox="0 0 292.1 482.7" style="enable-background:new 0 0 292.1 482.7;" xml:space="preserve">
<style type="text/css">
	.st0{filter:url(#Adobe_OpacityMaskFilter);}
	.st1{fill:#FD1EBC;}
	.st2{fill:#FFFFFF;}
	.st3{mask:url(#SVGID_1_);fill:#FD1EBC;}
	.st4{filter:url(#Adobe_OpacityMaskFilter_00000025422040219311942960000011022719068496554163_);}
	.st5{mask:url(#SVGID_00000116221876818038881100000003060995041154248832_);fill:#FD1EBC;}
</style>
<defs>
	<filter id="Adobe_OpacityMaskFilter" filterUnits="userSpaceOnUse" x="596" y="7" width="285.1" height="475.7">
		<feColorMatrix  type="matrix" values="1 0 0 0 0  0 1 0 0 0  0 0 1 0 0  0 0 0 1 0"/>
	</filter>
</defs>
<mask maskUnits="userSpaceOnUse" x="596" y="7" width="285.1" height="475.7" id="SVGID_1_">
	<g class="st0">
		<path class="st1" d="M871.2,86.6v91.6h10V86.6H871.2z M854,17c1.8,0,3.4,0.5,5,1.8c1.7,1.4,3.7,4,5.6,9c3.8,10,6.5,27.9,6.5,58.8
			h10c0-31.2-2.7-50.6-7.2-62.4c-2.2-5.9-5.1-10.3-8.6-13.2c-3.6-3-7.5-4-11.4-4V17z M837.6,87.9c0-31,2.6-49.2,6.2-59.6
			c1.8-5.1,3.8-7.9,5.5-9.4c1.6-1.4,3.1-1.9,4.8-1.9V7c-3.9,0-7.9,1.3-11.4,4.4c-3.4,3-6.1,7.5-8.2,13.6c-4.3,12-6.8,31.7-6.8,62.9
			H837.6z M837.6,146.1V87.9h-10v58.2H837.6z M862.9,386.8c0-75.3-6.4-109-12.8-137.4c-6.3-28-12.5-50.2-12.5-103.3h-10
			c0,54.2,6.4,77.4,12.8,105.5c6.3,27.7,12.5,60.7,12.5,135.2H862.9z M854.7,422.5c3.3,0,4.9-2.5,5.3-3.4c0.6-1.1,1-2.4,1.2-3.5
			c0.5-2.3,0.9-5.2,1.1-8.3c0.5-6.3,0.6-14.1,0.6-20.6h-10c0,6.5-0.1,14.1-0.5,19.9c-0.2,3-0.5,5.3-0.9,6.7c-0.2,0.8-0.3,1-0.3,0.9
			c0-0.1,0.2-0.4,0.7-0.8c0.5-0.5,1.5-1,2.7-1V422.5z M845.8,386.1c0,9.5,0.3,17.6,0.9,23.4c0.3,2.8,0.8,5.4,1.4,7.4
			c0.3,1,0.8,2.1,1.6,3.2c0.9,1.1,2.5,2.5,4.9,2.5v-10c1.7,0,2.7,1,2.9,1.3c0.2,0.3,0.2,0.3,0-0.2c-0.3-0.9-0.7-2.7-1-5.3
			c-0.6-5.2-0.8-12.8-0.8-22.3H845.8z M845.8,294.6v91.6h10v-91.6H845.8z M832.6,299.6h18.2v-10h-18.2V299.6z M837.6,400.5v-106h-10
			v106H837.6z M854.7,472.7c-1.6,0-3.2-0.5-4.8-2c-1.8-1.6-3.8-4.6-5.7-10c-3.8-10.7-6.5-29.3-6.5-60.2h-10
			c0,31.2,2.7,51.2,7.1,63.6c2.2,6.2,5,10.8,8.4,14c3.5,3.2,7.5,4.6,11.6,4.6V472.7z M871.2,401.8c0,31-2.6,49.2-6.2,59.6
			c-1.8,5.1-3.8,7.9-5.5,9.4c-1.6,1.4-3.1,1.9-4.8,1.9v10c3.9,0,7.9-1.3,11.4-4.4c3.4-3,6.1-7.5,8.2-13.6c4.3-12,6.8-31.7,6.8-62.9
			H871.2z M871.2,361.3v40.6h10v-40.6H871.2z M845.8,102.9c0,65.6,6.4,87.8,12.8,114.9c6.2,26.5,12.5,58.1,12.5,143.5h10
			c0-86-6.4-118.4-12.8-145.8c-6.3-26.7-12.5-48-12.5-112.6H845.8z M854,67.2c-3.3,0-4.9,2.5-5.3,3.4c-0.6,1.1-1,2.4-1.2,3.5
			c-0.5,2.3-0.9,5.2-1.1,8.3c-0.5,6.3-0.6,14.1-0.6,20.6h10c0-6.5,0.1-14.1,0.5-19.9c0.2-3,0.5-5.3,0.9-6.7c0.2-0.8,0.3-1,0.3-0.9
			c0,0.1-0.2,0.4-0.7,0.8c-0.5,0.5-1.5,1-2.7,1V67.2z M862.9,102.3c0-6.6-0.3-14.3-0.9-20.5c-0.3-3-0.7-5.9-1.4-8.1
			c-0.3-1.1-0.7-2.3-1.4-3.4c-0.5-0.9-2.2-3.1-5.2-3.1v10c-1.2,0-2-0.5-2.6-0.9c-0.5-0.4-0.7-0.7-0.7-0.8c-0.1-0.1,0.1,0.1,0.3,0.8
			c0.4,1.4,0.7,3.6,1,6.5c0.6,5.6,0.8,13,0.8,19.4H862.9z M862.9,178.1v-75.9h-10v75.9H862.9z M876.2,173.1h-18.2v10h18.2V173.1z
			 M782.7,17h18.2V7h-18.2V17z M787.7,477.7V12h-10v465.7H787.7z M800.9,472.7h-18.2v10h18.2V472.7z M795.9,233.7v244h10v-244H795.9
			z M801.2,228.7h-0.3v10h0.3V228.7z M815.4,477.5l-9.2-244l-10,0.4l9.2,244L815.4,477.5z M828.5,472.7h-18.1v10h18.1V472.7z
			 M812.2,205.2l11.3,272.7l10-0.4l-11.3-272.7L812.2,205.2z M823.4,11.7l-11.1,192.9l10,0.6l11.1-192.9L823.4,11.7z M810.4,17h18V7
			h-18V17z M806.2,218.2l9.2-206l-10-0.4l-9.2,206L806.2,218.2z M800.9,223h0.3v-10h-0.3V223z M795.9,12v206h10V12H795.9z
			 M752.9,73.7h-2.2v10h2.2V73.7z M762.1,108.1c0-11.1-0.3-18.8-1.1-23.8c-0.4-2.4-0.9-4.7-1.8-6.5c-1-1.9-3-4.1-6.3-4.1v10
			c-1.8,0-2.6-1.3-2.5-1.2c0.1,0.3,0.5,1.2,0.8,3.3c0.6,4.2,1,11.2,1,22.3H762.1z M762.1,176.8v-68.7h-10v68.7H762.1z M752.9,211.3
			c3.3,0,5.3-2.2,6.3-4.1c0.9-1.8,1.5-4.1,1.8-6.5c0.8-5,1.1-12.7,1.1-23.8h-10c0,11.1-0.3,18.1-1,22.3c-0.3,2.1-0.7,3.1-0.8,3.3
			c-0.1,0.1,0.7-1.2,2.5-1.2V211.3z M750.7,211.3h2.2v-10h-2.2V211.3z M745.7,78.7v127.5h10V78.7H745.7z M750.7,472.7h-18.2v10h18.2
			V472.7z M745.7,259.9v217.8h10V259.9H745.7z M762.1,311.6c0-14.6-0.1-27.8-0.9-37.3c-0.4-4.7-1.1-8.9-2.2-12.1
			c-0.6-1.6-1.3-3.2-2.6-4.6c-1.3-1.5-3.3-2.7-5.8-2.7v10c-0.9,0-1.5-0.5-1.7-0.6c0,0,0.2,0.3,0.6,1.2c0.7,1.9,1.3,5.1,1.7,9.7
			c0.8,9,0.9,21.6,0.9,36.4H762.1z M762.1,417.5v-106h-10v106H762.1z M764.6,477.2c-1.3-12.9-2.4-27.8-2.4-59.7h-10
			c0,32.2,1.2,47.4,2.5,60.7L764.6,477.2z M778.1,472.7h-18.5v10h18.5V472.7z M770.4,395.3c0,45.3,1.7,64.4,2.7,82.7l10-0.6
			c-1-18.3-2.7-37.2-2.7-82.1H770.4z M770.4,303.1v92.2h10v-92.2H770.4z M759.9,229.4c1.3,0.4,2.7,1.3,4,3.8
			c1.5,2.6,2.7,6.7,3.8,12.8c2,12.1,2.7,30.5,2.7,57.1h10c0-26.4-0.6-45.6-2.8-58.7c-1.1-6.5-2.6-11.9-4.9-16
			c-2.3-4.2-5.6-7.3-10.1-8.6L759.9,229.4z M756.3,223.3v1.3h10v-1.3H756.3z M770.4,147.4c0,17.2-0.8,35.1-2.9,49
			c-1.1,7-2.4,12.7-4,16.7c-1.8,4.4-3.3,5.3-3.6,5.4l2.9,9.6c5.1-1.5,8.1-6.6,10.1-11.3c2-5.1,3.5-11.7,4.6-18.9
			c2.2-14.6,3-33,3-50.5H770.4z M770.4,106.2v41.2h10v-41.2H770.4z M753.9,17c0.9,0,2.3,0.4,4.2,2.8c2,2.5,4.1,6.9,6,13.9
			c3.8,14,6.3,37,6.3,72.5h10c0-35.8-2.6-59.9-6.7-75.1c-2.1-7.6-4.6-13.4-7.7-17.4c-3.2-4.1-7.3-6.6-12-6.6V17z M732.4,17h21.5V7
			h-21.5V17z M737.4,477.7V12h-10v465.7H737.4z M703.5,422.5c3.3,0,4.9-2.5,5.3-3.4c0.6-1.1,1-2.4,1.2-3.5c0.5-2.3,0.9-5.2,1.1-8.3
			c0.5-6.3,0.6-14.1,0.6-20.6h-10c0,6.5-0.1,14.1-0.5,19.9c-0.2,3-0.5,5.3-0.9,6.7c-0.2,0.8-0.3,1-0.3,0.9c0-0.1,0.2-0.4,0.7-0.8
			c0.5-0.5,1.5-1,2.7-1V422.5z M695.3,386.8c0,6.6,0.1,14.4,0.6,20.6c0.2,3.1,0.6,6,1.1,8.3c0.3,1.1,0.6,2.4,1.2,3.5
			c0.5,0.8,2.1,3.4,5.3,3.4v-10c1.2,0,2.2,0.5,2.7,1c0.5,0.4,0.7,0.8,0.7,0.8c0.1,0.1-0.1-0.1-0.3-0.9c-0.3-1.5-0.6-3.8-0.9-6.7
			c-0.4-5.8-0.5-13.4-0.5-19.9H695.3z M695.3,102.9v283.9h10V102.9H695.3z M703.5,67.2c-3.3,0-4.9,2.5-5.3,3.4
			c-0.6,1.1-1,2.4-1.2,3.5c-0.5,2.3-0.9,5.2-1.1,8.3c-0.5,6.3-0.6,14.1-0.6,20.6h10c0-6.5,0.1-14.1,0.5-19.9c0.2-3,0.5-5.3,0.9-6.7
			c0.2-0.8,0.3-1,0.3-0.9c0,0.1-0.2,0.4-0.7,0.8c-0.5,0.5-1.5,1-2.7,1V67.2z M711.7,102.9c0-6.6-0.1-14.4-0.6-20.6
			c-0.2-3.1-0.6-6-1.1-8.3c-0.3-1.1-0.6-2.4-1.2-3.5c-0.5-0.8-2.1-3.4-5.3-3.4v10c-1.2,0-2.2-0.5-2.7-1c-0.5-0.4-0.7-0.8-0.7-0.8
			c-0.1-0.1,0.1,0.1,0.3,0.9c0.3,1.5,0.6,3.8,0.9,6.7c0.4,5.8,0.5,13.4,0.5,19.9H711.7z M711.7,386.8V102.9h-10v283.9H711.7z
			 M703.5,472.7c-1.7,0-3.2-0.5-4.8-1.9c-1.7-1.5-3.6-4.3-5.5-9.4c-3.7-10.4-6.2-28.6-6.2-59.6h-10c0,31.2,2.5,50.9,6.8,62.9
			c2.1,6.1,4.8,10.6,8.2,13.6c3.5,3.1,7.5,4.4,11.4,4.4V472.7z M720,401.8c0,31-2.6,49.2-6.2,59.6c-1.8,5.1-3.8,7.9-5.5,9.4
			c-1.6,1.4-3.1,1.9-4.8,1.9v10c3.9,0,7.9-1.3,11.4-4.4c3.4-3,6.1-7.5,8.2-13.6c4.3-12,6.8-31.7,6.8-62.9H720z M720,87.9v313.9h10
			V87.9H720z M703.5,17c1.7,0,3.2,0.5,4.8,1.9c1.7,1.5,3.6,4.3,5.5,9.4c3.7,10.4,6.2,28.6,6.2,59.6h10c0-31.2-2.5-50.9-6.8-62.9
			c-2.1-6.1-4.8-10.6-8.2-13.6c-3.5-3.1-7.5-4.4-11.4-4.4V17z M687,87.9c0-31,2.6-49.2,6.2-59.6c1.8-5.1,3.8-7.9,5.5-9.4
			c1.6-1.4,3.1-1.9,4.8-1.9V7c-3.9,0-7.9,1.3-11.4,4.4c-3.4,3-6.1,7.5-8.2,13.6c-4.3,12-6.8,31.7-6.8,62.9H687z M687,401.8V87.9h-10
			v313.9H687z M615.5,477.6l-9.3-465.7l-10,0.2l9.3,465.7L615.5,477.6z M630.9,472.7h-20.4v10h20.4V472.7z M632.9,152.5l-7,325.1
			l10,0.2l7-325.1L632.9,152.5z M638.1,147.6h-0.3v10h0.3V147.6z M649.3,477.6l-6.2-325.1l-10,0.2l6.2,325.1L649.3,477.6z
			 M665.3,472.7h-20.9v10h20.9V472.7z M673.1,11.9l-12.8,465.7l10,0.3l12.8-465.7L673.1,11.9z M659.9,17h18.2V7h-18.2V17z
			 M660.2,317.5l4.7-305.4l-10-0.2l-4.7,305.4L660.2,317.5z M654.9,322.4h0.3v-10h-0.3V322.4z M644.8,12.1l5.2,305.4l10-0.2
			l-5.2-305.4L644.8,12.1z M630,17h19.8V7H630V17z M628.4,317.6L635,12.1l-10-0.2l-6.6,305.4L628.4,317.6z M623.1,322.4h0.3v-10
			h-0.3V322.4z M614.4,12.1l3.8,305.4l10-0.1l-3.8-305.4L614.4,12.1z M601.2,17h18.2V7h-18.2V17z M850.8,294.6h5v-5h-5V294.6z
			 M832.6,294.6v-5h-5v5H832.6z M857.9,178.1h-5v5h5V178.1z M876.2,178.1v5h5v-5H876.2z M782.7,12V7h-5v5H782.7z M782.7,477.7h-5v5
			h5V477.7z M800.9,477.7v5h5v-5H800.9z M800.9,233.7v-5h-5v5H800.9z M801.2,233.7l5-0.2l-0.2-4.8h-4.8V233.7z M810.4,477.7l-5,0.2
			l0.2,4.8h4.8V477.7z M828.5,477.7v5h5.2l-0.2-5.2L828.5,477.7z M817.2,204.9l-5-0.3l0,0.2l0,0.2L817.2,204.9z M828.4,12l5,0.3
			l0.3-5.3h-5.3V12z M810.4,12V7h-4.8l-0.2,4.8L810.4,12z M801.2,218v5h4.8l0.2-4.8L801.2,218z M800.9,218h-5v5h5V218z M800.9,12h5
			V7h-5V12z M750.7,206.3h-5v5h5V206.3z M750.7,78.7v-5h-5v5H750.7z M750.7,477.7v5h5v-5H750.7z M750.7,259.9v-5h-5v5H750.7z
			 M759.6,477.7l-5,0.5l0.4,4.5h4.5V477.7z M778.1,477.7v5h5.3l-0.3-5.3L778.1,477.7z M761.3,224.6h-5v3.8l3.6,1L761.3,224.6z
			 M761.3,223.3l-1.4-4.8l-3.6,1.1v3.7H761.3z M732.4,12V7h-5v5H732.4z M732.4,477.7h-5v5h5V477.7z M610.5,477.7l-5,0.1l0.1,4.9h4.9
			V477.7z M630.9,477.7v5h4.9l0.1-4.9L630.9,477.7z M637.9,152.6v-5H633l-0.1,4.9L637.9,152.6z M638.1,152.6l5-0.1l-0.1-4.9h-4.9
			V152.6z M644.3,477.7l-5,0.1l0.1,4.9h4.9V477.7z M665.3,477.7v5h4.9l0.1-4.9L665.3,477.7z M678.1,12l5,0.1l0.1-5.1h-5.1V12z
			 M659.9,12V7h-4.9l-0.1,4.9L659.9,12z M655.2,317.4v5h4.9l0.1-4.9L655.2,317.4z M654.9,317.4l-5,0.1l0.1,4.9h4.9V317.4z M649.8,12
			l5-0.1L654.7,7h-4.9V12z M630,12V7h-4.9l-0.1,4.9L630,12z M623.4,317.4v5h4.9l0.1-4.9L623.4,317.4z M623.1,317.4l-5,0.1l0.1,4.9
			h4.9V317.4z M619.4,12l5-0.1L624.3,7h-4.9V12z M601.2,12V7H596l0.1,5.1L601.2,12z"/>
		<polygon class="st2" points="601.2,12 619.4,12 623.1,317.4 623.4,317.4 630,12 649.8,12 654.9,317.4 655.2,317.4 659.9,12 
			678.1,12 665.3,477.7 644.3,477.7 638.1,152.6 637.9,152.6 630.9,477.7 610.5,477.7 		"/>
		<path class="st2" d="M706.7,386.8V102.9c0-13.1-0.4-30.7-3.2-30.7c-2.8,0-3.2,17.7-3.2,30.7v283.9c0,13.1,0.4,30.7,3.2,30.7
			C706.4,417.5,706.7,399.9,706.7,386.8z M682,401.8V87.9c0-62.1,10.2-75.9,21.5-75.9c11.3,0,21.5,13.7,21.5,75.9v313.9
			c0,62.1-10.2,75.9-21.5,75.9C692.3,477.7,682,464,682,401.8z"/>
		<path class="st2" d="M750.7,78.7v127.5h2.2c3,0,4.3-7.2,4.3-29.4v-68.7c0-22.2-1.3-29.4-4.3-29.4H750.7z M732.4,477.7V12h21.5
			c11.3,0,21.5,22.9,21.5,94.2v41.2c0,34.7-3.1,72.6-14.1,75.9v1.3c11.5,3.3,14.1,25.5,14.1,78.5v92.2c0,45.1,1.7,64.1,2.7,82.4
			h-18.5c-1.3-13.1-2.5-28.1-2.5-60.2v-106c0-29.4-0.3-51.7-6.5-51.7v217.8H732.4z"/>
		<polygon class="st2" points="800.9,12 800.9,218 801.2,218 810.4,12 828.4,12 817.2,204.9 828.5,477.7 810.4,477.7 801.2,233.7 
			800.9,233.7 800.9,477.7 782.7,477.7 782.7,12 		"/>
		<path class="st2" d="M876.2,178.1h-18.2v-75.9c0-13.1-1-30.1-3.9-30.1c-2.8,0-3.2,17.7-3.2,30.7c0,130.2,25.3,87,25.3,258.4v40.6
			c0,62.1-10.2,75.9-21.5,75.9s-22.1-15-22.1-77.2v-106h18.2v91.6c0,19,1,31.4,3.9,31.4c2.8,0,3.2-17.7,3.2-30.7
			c0-149.8-25.3-133.4-25.3-240.7V87.9c0-62.1,10.2-75.9,21.5-75.9c11.3,0,22.1,12.4,22.1,74.6V178.1z"/>
	</g>
</mask>
<rect x="596" y="7" class="st3" width="285.1" height="475.7"/>
<g>
	<path class="st1" d="M867,17.2c-2.3-5.9-5.1-10.3-8.6-13.2c-3.6-3-7.5-4-11.4-4c-3.9,0-7.9,1.3-11.4,4.4c-3.4,3-6.1,7.5-8.2,13.6
		c-0.8,2.2-1.5,4.7-2.2,7.5l1.2-20.2l0.3-5.3h-5.3h-18h-4.4h-0.3h-4.7h-18.2h-5v5v40.8c-1.1-8.7-2.4-15.9-4-21.7
		c-2.1-7.6-4.6-13.4-7.7-17.4c-3.2-4.1-7.3-6.6-12-6.6h-21.5h-5v5v31.5c-1.1-7.6-2.5-13.7-4.3-18.6c-2.1-6.1-4.8-10.6-8.2-13.6
		c-3.5-3.1-7.5-4.4-11.4-4.4s-7.9,1.3-11.4,4.4c-3.4,3-6.1,7.5-8.2,13.6c-0.4,1.2-0.8,2.5-1.2,3.8l0.5-16.6l0.1-5.1h-5.1h-18.2h-4.9
		l-0.1,4.9l0,2.7l0-2.7L647.7,0h-4.9H623h-4.9L618,4.9l-0.4,17.9l-0.2-17.8L617.3,0h-4.9h-18.2H589l0.1,5.1l9.3,465.7l5-0.1v0
		l-5,0.1l0.1,4.9h4.9h20.4h4.9l0.1-4.9l-5-0.1v0l5,0.1l1.8-85.1l1.6,85l0.1,4.9h4.9h20.9h4.9l0.1-4.9l6.8-245.9v169.9
		c0,31.2,2.5,50.9,6.8,62.9c2.1,6.1,4.8,10.6,8.2,13.6c3.5,3.1,7.5,4.4,11.4,4.4s7.9-1.3,11.4-4.4c3.4-3,6.1-7.5,8.2-13.6
		c1.7-4.9,3.2-11,4.3-18.6v31.5v5h5h18.2h4.4h0.6h3.9h18.1h0.4h4.6h0.7h17.6h4.6h0.4h4.4h18.1h5.2l-0.2-5.2l-5,0.2v0l5-0.2
		l-0.8-20.2c0.6,2.5,1.3,4.8,2.1,6.8c2.2,6.2,5,10.8,8.4,14c3.5,3.2,7.5,4.6,11.6,4.6c3.9,0,7.9-1.3,11.4-4.4
		c3.4-3,6.1-7.5,8.2-13.6c4.3-12,6.8-31.7,6.8-62.9v-40.6c0-86-6.4-118.4-12.8-145.8c-2.5-10.6-5-20.4-7.1-32.4h14.9h5v-5V79.6
		C874.2,48.4,871.4,29,867,17.2z M825.6,282.6h-5v5v39.7L815.2,198l5.3-92.5v33.6c0,54.2,6.4,77.4,12.8,105.5c2.5,11,5,22.9,7.1,38
		H825.6z M799.2,226.5l-0.2-4.8h-4.8h-0.3h-5v5v239h-8.2V10h8.2v201v5h5h0.3h4.8l0.2-4.8l-5-0.2h0l5,0.2l9-201.2h7.9l-10.8,187.7
		l0,0.2l0,0.2l11,267.5h-8.1L799.2,226.5z M770.4,190.8c0.1-0.7,0.2-1.4,0.3-2.2v49.5c0-0.3-0.1-0.6-0.1-0.8
		c-1.1-6.5-2.6-11.9-4.9-16c-1-1.9-2.3-3.5-3.7-4.9c1.6-2,2.8-4.4,3.7-6.7C767.8,204.7,769.3,198.1,770.4,190.8z M751.1,12.8
		c2,2.5,4.1,6.9,6,13.9c3.8,14,6.3,37,6.3,72.5v41.2c0,17.2-0.8,35.1-2.9,49c-1.1,7-2.4,12.7-4,16.7c-1.8,4.4-3.3,5.3-3.6,5.4
		l-3.6,1.1v3.7v1.3v3.8l3.6,1c1.3,0.4,2.7,1.3,4,3.8c1.5,2.6,2.7,6.7,3.8,12.8c2,12.1,2.7,30.5,2.7,57.1v92.2
		c0,41,1.4,60.5,2.4,77.4h-8.6c-1.1-12-2-26.9-2-55.2v-106c0-14.6-0.1-27.8-0.9-37.3c-0.4-4.7-1.1-8.9-2.2-12.1
		c-0.6-1.6-1.3-3.2-2.6-4.6c-1.3-1.5-3.3-2.7-5.8-2.7h-5v5v212.8h-8.2V10h16.5C747.8,10,749.2,10.4,751.1,12.8z M653.4,465.7h-11.2
		l-6.1-320.2l-0.1-4.9h-4.9h-0.3H626l-0.1,4.9l5,0.1l0,0l-5-0.1L619,465.7h-10.6L599.3,10h8.2l3.7,300.5l0.1,4.9h4.9h0.3h4.9
		l0.1-4.9L627.9,10h10l5.1,300.5l0.1,4.9h4.9h0.3h4.9l0.1-4.9L657.8,10h8.2L653.4,465.7z M706.8,454.4c-1.8,5.1-3.8,7.9-5.5,9.4
		c-1.6,1.4-3.1,1.9-4.8,1.9s-3.2-0.5-4.8-1.9c-1.7-1.5-3.6-4.3-5.5-9.4c-3.7-10.4-6.2-28.6-6.2-59.6V80.9c0-31,2.6-49.2,6.2-59.6
		c1.8-5.1,3.8-7.9,5.5-9.4c1.6-1.4,3.1-1.9,4.8-1.9s3.2,0.5,4.8,1.9c1.7,1.5,3.6,4.3,5.5,9.4c3.7,10.4,6.2,28.6,6.2,59.6v313.9
		C713,425.8,710.4,444,706.8,454.4z M864.2,354.3v40.6c0,31-2.6,49.2-6.2,59.6c-1.8,5.1-3.8,7.9-5.5,9.4c-1.6,1.4-3.1,1.9-4.8,1.9
		c-1.6,0-3.2-0.5-4.8-2c-1.8-1.6-3.8-4.6-5.7-10c-3.8-10.7-6.5-29.3-6.5-60.2v-101h8.2v86.6c0,9.5,0.3,17.6,0.9,23.4
		c0.3,2.8,0.8,5.4,1.4,7.4c0.3,1,0.8,2.1,1.6,3.2c0.9,1.1,2.5,2.5,4.9,2.5c3.3,0,4.9-2.5,5.3-3.4c0.6-1.1,1-2.4,1.2-3.5
		c0.5-2.3,0.9-5.2,1.1-8.3c0.5-6.3,0.6-14.1,0.6-20.6c0-75.3-6.4-109-12.8-137.4c-6.3-28-12.5-50.2-12.5-103.3V80.9
		c0-31,2.6-49.2,6.2-59.6c1.8-5.1,3.8-7.9,5.5-9.4c1.6-1.4,3.1-1.9,4.8-1.9c1.8,0,3.4,0.5,5,1.8c1.7,1.4,3.7,4,5.6,9
		c3.8,10,6.5,27.9,6.5,58.8v86.6h-8.2V95.3c0-6.6-0.3-14.3-0.9-20.5c-0.3-3-0.7-5.9-1.4-8.1c-0.3-1.1-0.7-2.3-1.4-3.4
		c-0.5-0.9-2.2-3.1-5.2-3.1c-3.3,0-4.9,2.5-5.3,3.4c-0.6,1.1-1,2.4-1.2,3.5c-0.5,2.3-0.9,5.2-1.1,8.3c-0.5,6.3-0.6,14.1-0.6,20.6
		c0,65.6,6.4,87.8,12.8,114.9C857.8,237.3,864.2,268.9,864.2,354.3z"/>
	<path class="st1" d="M703.1,67c-0.3-1.1-0.6-2.4-1.2-3.5c-0.5-0.8-2.1-3.4-5.3-3.4c-3.3,0-4.9,2.5-5.3,3.4c-0.6,1.1-1,2.4-1.2,3.5
		c-0.5,2.3-0.9,5.2-1.1,8.3c-0.5,6.3-0.6,14.1-0.6,20.6v283.9c0,6.6,0.1,14.4,0.6,20.6c0.2,3.1,0.6,6,1.1,8.3
		c0.3,1.1,0.6,2.4,1.2,3.5c0.5,0.8,2.1,3.4,5.3,3.4c3.3,0,4.9-2.5,5.3-3.4c0.6-1.1,1-2.4,1.2-3.5c0.5-2.3,0.9-5.2,1.1-8.3
		c0.5-6.3,0.6-14.1,0.6-20.6V95.9c0-6.6-0.1-14.4-0.6-20.6C704,72.2,703.6,69.2,703.1,67z"/>
	<path class="st1" d="M745.9,204.3c3.3,0,5.3-2.2,6.3-4.1c0.9-1.8,1.5-4.1,1.8-6.5c0.8-5,1.1-12.7,1.1-23.8v-68.7
		c0-11.1-0.3-18.8-1.1-23.8c-0.4-2.4-0.9-4.7-1.8-6.5c-1-1.9-3-4.1-6.3-4.1h-2.2h-5v5v127.5v5h5H745.9z"/>
</g>
<polygon class="st2" points="594.2,5 612.4,5 616.1,310.4 616.4,310.4 623,5 642.8,5 647.9,310.4 648.2,310.4 652.9,5 671.1,5 
	658.3,470.7 637.3,470.7 631.1,145.6 630.9,145.6 623.9,470.7 603.5,470.7 "/>
<path class="st2" d="M699.7,379.8V95.9c0-13.1-0.4-30.7-3.2-30.7c-2.8,0-3.2,17.7-3.2,30.7v283.9c0,13.1,0.4,30.7,3.2,30.7
	C699.4,410.5,699.7,392.9,699.7,379.8z M675,394.8V80.9C675,18.7,685.3,5,696.5,5C707.8,5,718,18.7,718,80.9v313.9
	c0,62.1-10.2,75.9-21.5,75.9C685.3,470.7,675,457,675,394.8z"/>
<path class="st2" d="M743.7,71.7v127.5h2.2c3,0,4.3-7.2,4.3-29.4v-68.7c0-22.2-1.3-29.4-4.3-29.4H743.7z M725.4,470.7V5h21.5
	c11.3,0,21.5,22.9,21.5,94.2v41.2c0,34.7-3.1,72.6-14.1,75.9v1.3c11.5,3.3,14.1,25.5,14.1,78.5v92.2c0,45.1,1.7,64.1,2.7,82.4h-18.5
	c-1.3-13.1-2.5-28.1-2.5-60.2v-106c0-29.4-0.3-51.7-6.5-51.7v217.8H725.4z"/>
<polygon class="st2" points="793.9,5 793.9,211 794.2,211 803.4,5 821.4,5 810.2,197.9 821.5,470.7 803.4,470.7 794.2,226.7 
	793.9,226.7 793.9,470.7 775.7,470.7 775.7,5 "/>
<path class="st2" d="M869.2,171.1h-18.2V95.3c0-13.1-1-30.1-3.9-30.1c-2.8,0-3.2,17.7-3.2,30.7c0,130.2,25.3,87,25.3,258.4v40.6
	c0,62.1-10.2,75.9-21.5,75.9s-22.1-15-22.1-77.2v-106h18.2v91.6c0,19,1,31.4,3.9,31.4c2.8,0,3.2-17.7,3.2-30.7
	c0-149.8-25.3-133.4-25.3-240.7V80.9C825.6,18.7,835.8,5,847,5c11.3,0,22.1,12.4,22.1,74.6V171.1z"/>
<g>
	<defs>
		
			<filter id="Adobe_OpacityMaskFilter_00000182517204497179003880000002924028737353080192_" filterUnits="userSpaceOnUse" x="7" y="7" width="285.1" height="475.7">
			<feColorMatrix  type="matrix" values="1 0 0 0 0  0 1 0 0 0  0 0 1 0 0  0 0 0 1 0"/>
		</filter>
	</defs>
	
		<mask maskUnits="userSpaceOnUse" x="7" y="7" width="285.1" height="475.7" id="SVGID_00000114069657007023094540000007288218261116743814_">
		<g style="filter:url(#Adobe_OpacityMaskFilter_00000182517204497179003880000002924028737353080192_);">
			<path class="st1" d="M282.1,86.6v91.6h10V86.6H282.1z M265,17c1.8,0,3.4,0.5,5,1.8c1.7,1.4,3.7,4,5.6,9c3.8,10,6.5,27.9,6.5,58.8
				h10c0-31.2-2.7-50.6-7.2-62.4c-2.3-5.9-5.1-10.3-8.6-13.2c-3.6-3-7.5-4-11.4-4V17z M248.5,87.9c0-31,2.6-49.2,6.2-59.6
				c1.8-5.1,3.8-7.9,5.5-9.4c1.6-1.4,3.1-1.9,4.8-1.9V7c-3.9,0-7.9,1.3-11.4,4.4c-3.4,3-6.1,7.5-8.2,13.6c-4.3,12-6.8,31.7-6.8,62.9
				H248.5z M248.5,146.1V87.9h-10v58.2H248.5z M273.9,386.8c0-75.3-6.4-109-12.8-137.4c-6.3-28-12.5-50.2-12.5-103.3h-10
				c0,54.2,6.4,77.4,12.8,105.5c6.3,27.7,12.5,60.7,12.5,135.2H273.9z M265.6,422.5c3.3,0,4.9-2.5,5.3-3.4c0.6-1.1,1-2.4,1.2-3.5
				c0.5-2.3,0.9-5.2,1.1-8.3c0.5-6.3,0.6-14.1,0.6-20.6h-10c0,6.5-0.1,14.1-0.5,19.9c-0.2,3-0.5,5.3-0.9,6.7c-0.2,0.8-0.3,1-0.3,0.9
				c0-0.1,0.2-0.4,0.7-0.8c0.5-0.5,1.5-1,2.7-1V422.5z M256.8,386.1c0,9.5,0.3,17.6,0.9,23.4c0.3,2.8,0.8,5.4,1.4,7.4
				c0.3,1,0.8,2.1,1.6,3.2c0.9,1.1,2.5,2.5,4.9,2.5v-10c1.7,0,2.7,1,2.9,1.3c0.2,0.3,0.2,0.3,0-0.2c-0.3-0.9-0.7-2.7-1-5.3
				c-0.6-5.2-0.8-12.8-0.8-22.3H256.8z M256.8,294.6v91.6h10v-91.6H256.8z M243.5,299.6h18.2v-10h-18.2V299.6z M248.5,400.5v-106
				h-10v106H248.5z M265.6,472.7c-1.6,0-3.2-0.5-4.8-2c-1.8-1.6-3.8-4.6-5.7-10c-3.8-10.7-6.5-29.3-6.5-60.2h-10
				c0,31.2,2.7,51.2,7.1,63.6c2.2,6.2,5,10.8,8.4,14c3.5,3.2,7.5,4.6,11.6,4.6V472.7z M282.1,401.8c0,31-2.6,49.2-6.2,59.6
				c-1.8,5.1-3.8,7.9-5.5,9.4c-1.6,1.4-3.1,1.9-4.8,1.9v10c3.9,0,7.9-1.3,11.4-4.4c3.4-3,6.1-7.5,8.2-13.6c4.3-12,6.8-31.7,6.8-62.9
				H282.1z M282.1,361.3v40.6h10v-40.6H282.1z M256.8,102.9c0,65.6,6.4,87.8,12.8,114.9c6.2,26.5,12.5,58.1,12.5,143.5h10
				c0-86-6.4-118.4-12.8-145.8c-6.3-26.7-12.5-48-12.5-112.6H256.8z M265,67.2c-3.3,0-4.9,2.5-5.3,3.4c-0.6,1.1-1,2.4-1.2,3.5
				c-0.5,2.3-0.9,5.2-1.1,8.3c-0.5,6.3-0.6,14.1-0.6,20.6h10c0-6.5,0.1-14.1,0.5-19.9c0.2-3,0.5-5.3,0.9-6.7c0.2-0.8,0.3-1,0.3-0.9
				c0,0.1-0.2,0.4-0.7,0.8c-0.5,0.5-1.5,1-2.7,1V67.2z M273.9,102.3c0-6.6-0.3-14.3-0.9-20.5c-0.3-3-0.7-5.9-1.4-8.1
				c-0.3-1.1-0.7-2.3-1.4-3.4c-0.5-0.9-2.2-3.1-5.2-3.1v10c-1.2,0-2-0.5-2.6-0.9c-0.5-0.4-0.7-0.7-0.7-0.8c-0.1-0.1,0.1,0.1,0.3,0.8
				c0.4,1.4,0.7,3.6,1,6.5c0.6,5.6,0.8,13,0.8,19.4H273.9z M273.9,178.1v-75.9h-10v75.9H273.9z M287.1,173.1h-18.2v10h18.2V173.1z
				 M193.7,17h18.2V7h-18.2V17z M198.7,477.7V12h-10v465.7H198.7z M211.9,472.7h-18.2v10h18.2V472.7z M206.9,233.7v244h10v-244
				H206.9z M212.1,228.7h-0.3v10h0.3V228.7z M226.3,477.5l-9.2-244l-10,0.4l9.2,244L226.3,477.5z M239.4,472.7h-18.1v10h18.1V472.7z
				 M223.2,205.2l11.3,272.7l10-0.4l-11.3-272.7L223.2,205.2z M234.3,11.7l-11.1,192.9l10,0.6l11.1-192.9L234.3,11.7z M221.3,17h18
				V7h-18V17z M217.1,218.2l9.2-206l-10-0.4l-9.2,206L217.1,218.2z M211.9,223h0.3v-10h-0.3V223z M206.9,12v206h10V12H206.9z
				 M163.8,73.7h-2.2v10h2.2V73.7z M173.1,108.1c0-11.1-0.3-18.8-1.1-23.8c-0.4-2.4-0.9-4.7-1.8-6.5c-1-1.9-3-4.1-6.3-4.1v10
				c-1.8,0-2.6-1.3-2.5-1.2c0.1,0.3,0.5,1.2,0.8,3.3c0.6,4.2,1,11.2,1,22.3H173.1z M173.1,176.8v-68.7h-10v68.7H173.1z M163.8,211.3
				c3.3,0,5.3-2.2,6.3-4.1c0.9-1.8,1.5-4.1,1.8-6.5c0.8-5,1.1-12.7,1.1-23.8h-10c0,11.1-0.3,18.1-1,22.3c-0.3,2.1-0.7,3.1-0.8,3.3
				c-0.1,0.1,0.7-1.2,2.5-1.2V211.3z M161.6,211.3h2.2v-10h-2.2V211.3z M156.6,78.7v127.5h10V78.7H156.6z M161.6,472.7h-18.2v10
				h18.2V472.7z M156.6,259.9v217.8h10V259.9H156.6z M173.1,311.6c0-14.6-0.1-27.8-0.9-37.3c-0.4-4.7-1.1-8.9-2.2-12.1
				c-0.6-1.6-1.3-3.2-2.6-4.6c-1.3-1.5-3.3-2.7-5.8-2.7v10c-0.9,0-1.5-0.5-1.7-0.6c0,0,0.2,0.3,0.6,1.2c0.7,1.9,1.3,5.1,1.7,9.7
				c0.8,9,0.9,21.6,0.9,36.4H173.1z M173.1,417.5v-106h-10v106H173.1z M175.5,477.2c-1.3-12.9-2.4-27.8-2.4-59.7h-10
				c0,32.2,1.2,47.4,2.5,60.7L175.5,477.2z M189,472.7h-18.5v10H189V472.7z M181.3,395.3c0,45.3,1.7,64.4,2.7,82.7l10-0.6
				c-1-18.3-2.7-37.2-2.7-82.1H181.3z M181.3,303.1v92.2h10v-92.2H181.3z M170.9,229.4c1.3,0.4,2.7,1.3,4,3.8
				c1.5,2.6,2.7,6.7,3.8,12.8c2,12.1,2.7,30.5,2.7,57.1h10c0-26.4-0.6-45.6-2.8-58.7c-1.1-6.5-2.6-11.9-4.9-16
				c-2.3-4.2-5.6-7.3-10.1-8.6L170.9,229.4z M167.2,223.3v1.3h10v-1.3H167.2z M181.3,147.4c0,17.2-0.8,35.1-2.9,49
				c-1.1,7-2.4,12.7-4,16.7c-1.8,4.4-3.3,5.3-3.6,5.4l2.9,9.6c5.1-1.5,8.1-6.6,10.1-11.3c2-5.1,3.5-11.7,4.6-18.9
				c2.2-14.6,3-33,3-50.5H181.3z M181.3,106.2v41.2h10v-41.2H181.3z M164.9,17c0.9,0,2.3,0.4,4.2,2.8c2,2.5,4.1,6.9,6,13.9
				c3.8,14,6.3,37,6.3,72.5h10c0-35.8-2.6-59.9-6.7-75.1c-2.1-7.6-4.6-13.4-7.7-17.4c-3.2-4.1-7.3-6.6-12-6.6V17z M143.4,17h21.5V7
				h-21.5V17z M148.4,477.7V12h-10v465.7H148.4z M114.5,422.5c3.3,0,4.9-2.5,5.3-3.4c0.6-1.1,1-2.4,1.2-3.5c0.5-2.3,0.9-5.2,1.1-8.3
				c0.5-6.3,0.6-14.1,0.6-20.6h-10c0,6.5-0.1,14.1-0.5,19.9c-0.2,3-0.5,5.3-0.9,6.7c-0.2,0.8-0.3,1-0.3,0.9c0-0.1,0.2-0.4,0.7-0.8
				c0.5-0.5,1.5-1,2.7-1V422.5z M106.2,386.8c0,6.6,0.1,14.4,0.6,20.6c0.2,3.1,0.6,6,1.1,8.3c0.3,1.1,0.6,2.4,1.2,3.5
				c0.5,0.8,2.1,3.4,5.3,3.4v-10c1.2,0,2.2,0.5,2.7,1c0.5,0.4,0.7,0.8,0.7,0.8c0.1,0.1-0.1-0.1-0.3-0.9c-0.3-1.5-0.6-3.8-0.9-6.7
				c-0.4-5.8-0.5-13.4-0.5-19.9H106.2z M106.2,102.9v283.9h10V102.9H106.2z M114.5,67.2c-3.3,0-4.9,2.5-5.3,3.4
				c-0.6,1.1-1,2.4-1.2,3.5c-0.5,2.3-0.9,5.2-1.1,8.3c-0.5,6.3-0.6,14.1-0.6,20.6h10c0-6.5,0.1-14.1,0.5-19.9c0.2-3,0.5-5.3,0.9-6.7
				c0.2-0.8,0.3-1,0.3-0.9c0,0.1-0.2,0.4-0.7,0.8c-0.5,0.5-1.5,1-2.7,1V67.2z M122.7,102.9c0-6.6-0.1-14.4-0.6-20.6
				c-0.2-3.1-0.6-6-1.1-8.3c-0.3-1.1-0.6-2.4-1.2-3.5c-0.5-0.8-2.1-3.4-5.3-3.4v10c-1.2,0-2.2-0.5-2.7-1c-0.5-0.4-0.7-0.8-0.7-0.8
				c-0.1-0.1,0.1,0.1,0.3,0.9c0.3,1.5,0.6,3.8,0.9,6.7c0.4,5.8,0.5,13.4,0.5,19.9H122.7z M122.7,386.8V102.9h-10v283.9H122.7z
				 M114.5,472.7c-1.7,0-3.2-0.5-4.8-1.9c-1.7-1.5-3.6-4.3-5.5-9.4c-3.7-10.4-6.2-28.6-6.2-59.6H88c0,31.2,2.5,50.9,6.8,62.9
				c2.1,6.1,4.8,10.6,8.2,13.6c3.5,3.1,7.5,4.4,11.4,4.4V472.7z M130.9,401.8c0,31-2.6,49.2-6.2,59.6c-1.8,5.1-3.8,7.9-5.5,9.4
				c-1.6,1.4-3.1,1.9-4.8,1.9v10c3.9,0,7.9-1.3,11.4-4.4c3.4-3,6.1-7.5,8.2-13.6c4.3-12,6.8-31.7,6.8-62.9H130.9z M130.9,87.9v313.9
				h10V87.9H130.9z M114.5,17c1.7,0,3.2,0.5,4.8,1.9c1.7,1.5,3.6,4.3,5.5,9.4c3.7,10.4,6.2,28.6,6.2,59.6h10
				c0-31.2-2.5-50.9-6.8-62.9c-2.1-6.1-4.8-10.6-8.2-13.6c-3.5-3.1-7.5-4.4-11.4-4.4V17z M98,87.9c0-31,2.6-49.2,6.2-59.6
				c1.8-5.1,3.8-7.9,5.5-9.4c1.6-1.4,3.1-1.9,4.8-1.9V7c-3.9,0-7.9,1.3-11.4,4.4c-3.4,3-6.1,7.5-8.2,13.6C90.5,37,88,56.7,88,87.9
				H98z M98,401.8V87.9H88v313.9H98z M26.4,477.6L17.1,11.9l-10,0.2l9.3,465.7L26.4,477.6z M41.8,472.7H21.4v10h20.4V472.7z
				 M43.8,152.5l-7,325.1l10,0.2l7-325.1L43.8,152.5z M49.1,147.6h-0.3v10h0.3V147.6z M60.3,477.6l-6.2-325.1l-10,0.2l6.2,325.1
				L60.3,477.6z M76.2,472.7H55.3v10h20.9V472.7z M84,11.9L71.2,477.5l10,0.3L94,12.1L84,11.9z M70.8,17H89V7H70.8V17z M71.2,317.5
				l4.7-305.4l-10-0.2l-4.7,305.4L71.2,317.5z M65.9,322.4h0.3v-10h-0.3V322.4z M55.7,12.1l5.2,305.4l10-0.2L65.7,11.9L55.7,12.1z
				 M40.9,17h19.8V7H40.9V17z M39.3,317.6l6.6-305.4l-10-0.2l-6.6,305.4L39.3,317.6z M34.1,322.4h0.3v-10h-0.3V322.4z M25.3,12.1
				l3.8,305.4l10-0.1L35.3,11.9L25.3,12.1z M12.1,17h18.2V7H12.1V17z M261.8,294.6h5v-5h-5V294.6z M243.5,294.6v-5h-5v5H243.5z
				 M268.9,178.1h-5v5h5V178.1z M287.1,178.1v5h5v-5H287.1z M193.7,12V7h-5v5H193.7z M193.7,477.7h-5v5h5V477.7z M211.9,477.7v5h5
				v-5H211.9z M211.9,233.7v-5h-5v5H211.9z M212.1,233.7l5-0.2l-0.2-4.8h-4.8V233.7z M221.3,477.7l-5,0.2l0.2,4.8h4.8V477.7z
				 M239.4,477.7v5h5.2l-0.2-5.2L239.4,477.7z M228.2,204.9l-5-0.3l0,0.2l0,0.2L228.2,204.9z M239.3,12l5,0.3l0.3-5.3h-5.3V12z
				 M221.3,12V7h-4.8l-0.2,4.8L221.3,12z M212.1,218v5h4.8l0.2-4.8L212.1,218z M211.9,218h-5v5h5V218z M211.9,12h5V7h-5V12z
				 M161.6,206.3h-5v5h5V206.3z M161.6,78.7v-5h-5v5H161.6z M161.6,477.7v5h5v-5H161.6z M161.6,259.9v-5h-5v5H161.6z M170.5,477.7
				l-5,0.5l0.4,4.5h4.5V477.7z M189,477.7v5h5.3l-0.3-5.3L189,477.7z M172.2,224.6h-5v3.8l3.6,1L172.2,224.6z M172.2,223.3l-1.4-4.8
				l-3.6,1.1v3.7H172.2z M143.4,12V7h-5v5H143.4z M143.4,477.7h-5v5h5V477.7z M21.4,477.7l-5,0.1l0.1,4.9h4.9V477.7z M41.8,477.7v5
				h4.9l0.1-4.9L41.8,477.7z M48.8,152.6v-5h-4.9l-0.1,4.9L48.8,152.6z M49.1,152.6l5-0.1l-0.1-4.9h-4.9V152.6z M55.3,477.7l-5,0.1
				l0.1,4.9h4.9V477.7z M76.2,477.7v5h4.9l0.1-4.9L76.2,477.7z M89,12l5,0.1L94.2,7H89V12z M70.8,12V7h-4.9l-0.1,4.9L70.8,12z
				 M66.2,317.4v5h4.9l0.1-4.9L66.2,317.4z M65.9,317.4l-5,0.1l0.1,4.9h4.9V317.4z M60.7,12l5-0.1L65.6,7h-4.9V12z M40.9,12V7H36
				l-0.1,4.9L40.9,12z M34.3,317.4v5h4.9l0.1-4.9L34.3,317.4z M34.1,317.4l-5,0.1l0.1,4.9h4.9V317.4z M30.3,12l5-0.1L35.3,7h-4.9V12
				z M12.1,12V7H7l0.1,5.1L12.1,12z"/>
			<polygon class="st2" points="12.1,12 30.3,12 34.1,317.4 34.3,317.4 40.9,12 60.7,12 65.9,317.4 66.2,317.4 70.8,12 89,12 
				76.2,477.7 55.3,477.7 49.1,152.6 48.8,152.6 41.8,477.7 21.4,477.7 			"/>
			<path class="st2" d="M117.7,386.8V102.9c0-13.1-0.4-30.7-3.2-30.7s-3.2,17.7-3.2,30.7v283.9c0,13.1,0.4,30.7,3.2,30.7
				S117.7,399.9,117.7,386.8z M93,401.8V87.9C93,25.7,103.2,12,114.5,12s21.5,13.7,21.5,75.9v313.9c0,62.1-10.2,75.9-21.5,75.9
				S93,464,93,401.8z"/>
			<path class="st2" d="M161.6,78.7v127.5h2.2c3,0,4.3-7.2,4.3-29.4v-68.7c0-22.2-1.3-29.4-4.3-29.4H161.6z M143.4,477.7V12h21.5
				c11.3,0,21.5,22.9,21.5,94.2v41.2c0,34.7-3.1,72.6-14.1,75.9v1.3c11.5,3.3,14.1,25.5,14.1,78.5v92.2c0,45.1,1.7,64.1,2.7,82.4
				h-18.5c-1.3-13.1-2.5-28.1-2.5-60.2v-106c0-29.4-0.3-51.7-6.5-51.7v217.8H143.4z"/>
			<polygon class="st2" points="211.9,12 211.9,218 212.1,218 221.3,12 239.3,12 228.2,204.9 239.4,477.7 221.3,477.7 212.1,233.7 
				211.9,233.7 211.9,477.7 193.7,477.7 193.7,12 			"/>
			<path class="st2" d="M287.1,178.1h-18.2v-75.9c0-13.1-1-30.1-3.9-30.1s-3.2,17.7-3.2,30.7c0,130.2,25.3,87,25.3,258.4v40.6
				c0,62.1-10.2,75.9-21.5,75.9c-11.3,0-22.1-15-22.1-77.2v-106h18.2v91.6c0,19,1,31.4,3.9,31.4s3.2-17.7,3.2-30.7
				c0-149.8-25.3-133.4-25.3-240.7V87.9c0-62.1,10.2-75.9,21.5-75.9c11.3,0,22.1,12.4,22.1,74.6V178.1z"/>
		</g>
	</mask>
	
		<rect x="7" y="7" style="mask:url(#SVGID_00000114069657007023094540000007288218261116743814_);fill:#FD1EBC;" width="285.1" height="475.7"/>
	<g>
		<path class="st1" d="M277.9,17.2c-2.3-5.9-5.1-10.3-8.6-13.2c-3.6-3-7.5-4-11.4-4c-3.9,0-7.9,1.3-11.4,4.4
			c-3.4,3-6.1,7.5-8.2,13.6c-0.8,2.2-1.5,4.7-2.2,7.5l1.2-20.2l0.3-5.3h-5.3h-18h-4.4h-0.3h-4.7h-18.2h-5v5v40.8
			c-1.1-8.7-2.4-15.9-4-21.7c-2.1-7.6-4.6-13.4-7.7-17.4c-3.2-4.1-7.3-6.6-12-6.6h-21.5h-5v5v31.5c-1.1-7.6-2.5-13.7-4.3-18.6
			c-2.1-6.1-4.8-10.6-8.2-13.6c-3.5-3.1-7.5-4.4-11.4-4.4S99.6,1.3,96,4.4c-3.4,3-6.1,7.5-8.2,13.6c-0.4,1.2-0.8,2.5-1.2,3.8L87,5.1
			L87.2,0H82H63.8h-4.9l-0.1,4.9l0,2.7l0-2.7L58.6,0h-4.9H33.9H29l-0.1,4.9l-0.4,17.9L28.3,4.9L28.3,0h-4.9H5.1H0l0.1,5.1l9.3,465.7
			l5-0.1v0l-5,0.1l0.1,4.9h4.9h20.4h4.9l0.1-4.9l-5-0.1v0l5,0.1l1.8-85.1l1.6,85l0.1,4.9h4.9h20.9h4.9l0.1-4.9L81,224.9v169.9
			c0,31.2,2.5,50.9,6.8,62.9c2.1,6.1,4.8,10.6,8.2,13.6c3.5,3.1,7.5,4.4,11.4,4.4s7.9-1.3,11.4-4.4c3.4-3,6.1-7.5,8.2-13.6
			c1.7-4.9,3.2-11,4.3-18.6v31.5v5h5h18.2h4.4h0.6h3.9h18.1h0.4h4.6h0.7h17.6h4.6h0.4h4.4h18.1h5.2l-0.2-5.2l-5,0.2v0l5-0.2
			l-0.8-20.2c0.6,2.5,1.3,4.8,2.1,6.8c2.2,6.2,5,10.8,8.4,14c3.5,3.2,7.5,4.6,11.6,4.6c3.9,0,7.9-1.3,11.4-4.4
			c3.4-3,6.1-7.5,8.2-13.6c4.3-12,6.8-31.7,6.8-62.9v-40.6c0-86-6.4-118.4-12.8-145.8c-2.5-10.6-5-20.4-7.1-32.4h14.9h5v-5V79.6
			C285.1,48.4,282.4,29,277.9,17.2z M236.5,282.6h-5v5v39.7L226.2,198l5.3-92.5v33.6c0,54.2,6.4,77.4,12.8,105.5
			c2.5,11,5,22.9,7.1,38H236.5z M210.1,226.5l-0.2-4.8h-4.8h-0.3h-5v5v239h-8.2V10h8.2v201v5h5h0.3h4.8l0.2-4.8l-5-0.2h0l5,0.2
			l9-201.2h7.9l-10.8,187.7l0,0.2l0,0.2l11,267.5h-8.1L210.1,226.5z M181.3,190.8c0.1-0.7,0.2-1.4,0.3-2.2v49.5
			c0-0.3-0.1-0.6-0.1-0.8c-1.1-6.5-2.6-11.9-4.9-16c-1-1.9-2.3-3.5-3.7-4.9c1.6-2,2.8-4.4,3.7-6.7
			C178.8,204.7,180.2,198.1,181.3,190.8z M162,12.8c2,2.5,4.1,6.9,6,13.9c3.8,14,6.3,37,6.3,72.5v41.2c0,17.2-0.8,35.1-2.9,49
			c-1.1,7-2.4,12.7-4,16.7c-1.8,4.4-3.3,5.3-3.6,5.4l-3.6,1.1v3.7v1.3v3.8l3.6,1c1.3,0.4,2.7,1.3,4,3.8c1.5,2.6,2.7,6.7,3.8,12.8
			c2,12.1,2.7,30.5,2.7,57.1v92.2c0,41,1.4,60.5,2.4,77.4h-8.6c-1.1-12-2-26.9-2-55.2v-106c0-14.6-0.1-27.8-0.9-37.3
			c-0.4-4.7-1.1-8.9-2.2-12.1c-0.6-1.6-1.3-3.2-2.6-4.6c-1.3-1.5-3.3-2.7-5.8-2.7h-5v5v212.8h-8.2V10h16.5
			C158.7,10,160.1,10.4,162,12.8z M64.4,465.7H53.2l-6.1-320.2l-0.1-4.9h-4.9h-0.3h-4.9l-0.1,4.9l5,0.1l0,0l-5-0.1l-6.9,320.2H19.3
			L10.2,10h8.2l3.7,300.5l0.1,4.9h4.9h0.3h4.9l0.1-4.9L38.8,10h10l5.1,300.5l0.1,4.9h4.9h0.3h4.9l0.1-4.9L68.7,10h8.2L64.4,465.7z
			 M117.7,454.4c-1.8,5.1-3.8,7.9-5.5,9.4c-1.6,1.4-3.1,1.9-4.8,1.9s-3.2-0.5-4.8-1.9c-1.7-1.5-3.6-4.3-5.5-9.4
			C93.6,444,91,425.8,91,394.8V80.9c0-31,2.6-49.2,6.2-59.6c1.8-5.1,3.8-7.9,5.5-9.4c1.6-1.4,3.1-1.9,4.8-1.9s3.2,0.5,4.8,1.9
			c1.7,1.5,3.6,4.3,5.5,9.4c3.7,10.4,6.2,28.6,6.2,59.6v313.9C123.9,425.8,121.4,444,117.7,454.4z M275.1,354.3v40.6
			c0,31-2.6,49.2-6.2,59.6c-1.8,5.1-3.8,7.9-5.5,9.4c-1.6,1.4-3.1,1.9-4.8,1.9c-1.6,0-3.2-0.5-4.8-2c-1.8-1.6-3.8-4.6-5.7-10
			c-3.8-10.7-6.5-29.3-6.5-60.2v-101h8.2v86.6c0,9.5,0.3,17.6,0.9,23.4c0.3,2.8,0.8,5.4,1.4,7.4c0.3,1,0.8,2.1,1.6,3.2
			c0.9,1.1,2.5,2.5,4.9,2.5c3.3,0,4.9-2.5,5.3-3.4c0.6-1.1,1-2.4,1.2-3.5c0.5-2.3,0.9-5.2,1.1-8.3c0.5-6.3,0.6-14.1,0.6-20.6
			c0-75.3-6.4-109-12.8-137.4c-6.3-28-12.5-50.2-12.5-103.3V80.9c0-31,2.6-49.2,6.2-59.6c1.8-5.1,3.8-7.9,5.5-9.4
			c1.6-1.4,3.1-1.9,4.8-1.9c1.8,0,3.4,0.5,5,1.8c1.7,1.4,3.7,4,5.6,9c3.8,10,6.5,27.9,6.5,58.8v86.6h-8.2V95.3
			c0-6.6-0.3-14.3-0.9-20.5c-0.3-3-0.7-5.9-1.4-8.1c-0.3-1.1-0.7-2.3-1.4-3.4c-0.5-0.9-2.2-3.1-5.2-3.1c-3.3,0-4.9,2.5-5.3,3.4
			c-0.6,1.1-1,2.4-1.2,3.5c-0.5,2.3-0.9,5.2-1.1,8.3c-0.5,6.3-0.6,14.1-0.6,20.6c0,65.6,6.4,87.8,12.8,114.9
			C268.8,237.3,275.1,268.9,275.1,354.3z"/>
		<path class="st1" d="M114,67c-0.3-1.1-0.6-2.4-1.2-3.5c-0.5-0.8-2.1-3.4-5.3-3.4c-3.3,0-4.9,2.5-5.3,3.4c-0.6,1.1-1,2.4-1.2,3.5
			c-0.5,2.3-0.9,5.2-1.1,8.3c-0.5,6.3-0.6,14.1-0.6,20.6v283.9c0,6.6,0.1,14.4,0.6,20.6c0.2,3.1,0.6,6,1.1,8.3
			c0.3,1.1,0.6,2.4,1.2,3.5c0.5,0.8,2.1,3.4,5.3,3.4c3.3,0,4.9-2.5,5.3-3.4c0.6-1.1,1-2.4,1.2-3.5c0.5-2.3,0.9-5.2,1.1-8.3
			c0.5-6.3,0.6-14.1,0.6-20.6V95.9c0-6.6-0.1-14.4-0.6-20.6C114.9,72.2,114.6,69.2,114,67z"/>
		<path class="st1" d="M156.8,204.3c3.3,0,5.3-2.2,6.3-4.1c0.9-1.8,1.5-4.1,1.8-6.5c0.8-5,1.1-12.7,1.1-23.8v-68.7
			c0-11.1-0.3-18.8-1.1-23.8c-0.4-2.4-0.9-4.7-1.8-6.5c-1-1.9-3-4.1-6.3-4.1h-2.2h-5v5v127.5v5h5H156.8z"/>
	</g>
	<polygon class="st2" points="5.1,5 23.3,5 27.1,310.4 27.3,310.4 33.9,5 53.7,5 58.9,310.4 59.2,310.4 63.8,5 82,5 69.2,470.7 
		48.3,470.7 42.1,145.6 41.8,145.6 34.8,470.7 14.4,470.7 	"/>
	<path class="st2" d="M110.7,379.8V95.9c0-13.1-0.4-30.7-3.2-30.7s-3.2,17.7-3.2,30.7v283.9c0,13.1,0.4,30.7,3.2,30.7
		S110.7,392.9,110.7,379.8z M86,394.8V80.9C86,18.7,96.2,5,107.5,5s21.5,13.7,21.5,75.9v313.9c0,62.1-10.2,75.9-21.5,75.9
		S86,457,86,394.8z"/>
	<path class="st2" d="M154.6,71.7v127.5h2.2c3,0,4.3-7.2,4.3-29.4v-68.7c0-22.2-1.3-29.4-4.3-29.4H154.6z M136.4,470.7V5h21.5
		c11.3,0,21.5,22.9,21.5,94.2v41.2c0,34.7-3.1,72.6-14.1,75.9v1.3c11.5,3.3,14.1,25.5,14.1,78.5v92.2c0,45.1,1.7,64.1,2.7,82.4
		h-18.5c-1.3-13.1-2.5-28.1-2.5-60.2v-106c0-29.4-0.3-51.7-6.5-51.7v217.8H136.4z"/>
	<polygon class="st2" points="204.9,5 204.9,211 205.1,211 214.3,5 232.3,5 221.2,197.9 232.4,470.7 214.3,470.7 205.1,226.7 
		204.9,226.7 204.9,470.7 186.7,470.7 186.7,5 	"/>
	<path class="st2" d="M280.1,171.1h-18.2V95.3c0-13.1-1-30.1-3.9-30.1s-3.2,17.7-3.2,30.7c0,130.2,25.3,87,25.3,258.4v40.6
		c0,62.1-10.2,75.9-21.5,75.9c-11.3,0-22.1-15-22.1-77.2v-106h18.2v91.6c0,19,1,31.4,3.9,31.4s3.2-17.7,3.2-30.7
		c0-149.8-25.3-133.4-25.3-240.7V80.9C236.5,18.7,246.7,5,258,5c11.3,0,22.1,12.4,22.1,74.6V171.1z"/>
</g>
</svg>
